<?xml version="1.0" standalone="no"?>
<!DOCTYPE svg PUBLIC "-//W3C//DTD SVG 20010904//EN"
 "http://www.w3.org/TR/2001/REC-SVG-20010904/DTD/svg10.dtd">
<svg version="1.0" xmlns="http://www.w3.org/2000/svg"
 width="1024.000000pt" height="1024.000000pt" viewBox="0 0 1024.000000 1024.000000"
 preserveAspectRatio="xMidYMid meet">

<g transform="translate(0.000000,1024.000000) scale(0.100000,-0.100000)"
fill="#000000" stroke="none">
<path d="M0 5120 l0 -5120 5120 0 5120 0 0 2521 0 2522 -47 -7 c-168 -21 -595
-45 -863 -47 -139 -2 -142 -2 -70 -11 41 -5 170 -23 285 -39 116 -16 263 -37
328 -46 64 -9 115 -18 113 -20 -2 -2 -59 1 -127 7 -68 5 -290 19 -494 30 -432
23 -455 24 -895 50 -613 36 -1018 50 -1925 70 -264 6 -595 15 -735 20 -595 22
-2378 45 -2205 28 206 -19 1082 -88 1129 -88 16 0 27 -2 24 -5 -6 -6 -919 21
-1223 36 -121 6 -265 9 -320 7 l-100 -3 220 -48 c121 -26 249 -53 285 -61 88
-19 58 -19 -99 -1 -73 9 -204 17 -293 18 l-160 2 -26 -73 -26 -72 35 -36 c18
-19 59 -51 89 -72 73 -48 81 -55 47 -43 -37 14 -87 14 -87 0 0 -23 199 -208
285 -264 108 -70 315 -216 315 -221 0 -2 -33 16 -72 39 -40 24 -118 68 -173
99 -55 30 -118 66 -140 78 l-40 24 30 -34 c35 -40 39 -43 -140 91 -77 58 -168
125 -203 148 l-62 44 -53 -50 c-28 -27 -71 -62 -94 -77 l-42 -28 26 -47 c45
-78 107 -161 220 -294 173 -206 174 -208 99 -140 -67 61 -86 73 -86 54 0 -9 9
-22 132 -181 36 -47 132 -186 213 -310 81 -124 152 -231 157 -237 6 -7 8 -13
5 -13 -3 0 -41 46 -85 102 -44 57 -125 154 -180 216 -55 62 -169 203 -253 314
-84 110 -203 257 -264 327 -97 109 -116 126 -140 124 -16 -1 -31 -6 -35 -10
-6 -6 26 -187 55 -313 3 -14 -17 20 -44 75 -27 55 -64 123 -82 151 l-34 50
-62 -14 -62 -13 -7 -56 c-17 -140 31 -312 89 -313 20 -1 32 -31 134 -337 62
-185 111 -338 110 -340 -2 -1 -34 75 -72 170 -90 227 -154 379 -168 395 -14
17 -25 -2 -48 -83 -17 -56 -18 -58 -18 -23 -2 105 -80 416 -101 403 -24 -15
-99 -274 -125 -430 -36 -219 -8 -467 63 -547 13 -16 13 -37 -4 -200 l-19 -183
-7 80 c-7 93 -28 188 -58 268 -22 60 -33 69 -46 40 -4 -10 -11 -252 -16 -538
-5 -286 -12 -576 -16 -645 l-8 -125 -2 155 c-3 262 -31 770 -46 860 -9 47 -22
105 -30 128 -14 38 -13 50 4 130 58 268 66 857 14 981 l-15 36 -25 -30 c-23
-29 -144 -267 -144 -285 0 -5 -4 -11 -9 -14 -5 -3 2 28 15 70 33 104 74 311
81 409 5 75 4 84 -16 104 -11 11 -28 21 -38 21 -9 0 -41 -25 -71 -55 -30 -30
-56 -55 -58 -55 -1 0 11 30 27 66 17 36 28 68 26 71 -10 9 -246 -272 -271
-323 -75 -153 -51 -216 62 -164 23 10 42 18 42 16 0 -11 -177 -306 -184 -306
-1 0 13 45 32 101 18 55 31 103 28 106 -15 15 -66 -16 -139 -86 -45 -42 -109
-98 -142 -123 -33 -26 -135 -120 -227 -210 -91 -89 -161 -156 -155 -148 40 52
271 324 361 424 116 130 150 183 190 294 34 96 50 126 103 194 25 31 43 62 41
68 -2 7 -30 -7 -68 -34 -36 -25 -90 -63 -120 -83 -30 -21 -82 -57 -115 -81
-44 -32 -11 5 121 135 152 149 273 290 327 380 8 12 -94 162 -120 176 -16 10
-153 -52 -226 -101 -74 -50 -74 -47 6 37 76 82 114 137 103 149 -9 8 -101 -23
-178 -61 l-67 -33 121 124 c90 91 118 126 110 134 -7 7 -44 15 -84 18 -40 4
-64 8 -52 9 11 0 43 13 72 27 l52 26 0 64 c0 54 -4 69 -23 88 -30 30 -143 59
-342 89 l-160 23 200 7 c184 5 266 16 288 37 19 18 -19 54 -96 92 -45 21 -73
36 -62 33 11 -4 55 -9 99 -12 76 -6 78 -5 68 14 -24 45 -178 176 -270 230
-120 70 -134 81 -59 48 32 -14 115 -46 184 -71 70 -25 151 -57 181 -70 30 -13
60 -24 66 -24 6 0 34 35 63 78 28 42 64 94 79 115 l27 37 -24 26 c-52 56 -190
106 -235 86 -31 -15 -31 -44 1 -100 22 -39 13 -32 -83 58 -123 118 -294 262
-420 357 -86 65 -106 81 -87 71 40 -22 236 -134 307 -177 48 -28 94 -54 103
-57 28 -11 16 19 -32 80 l-48 61 62 -52 c138 -115 169 -127 143 -58 -9 25 -7
24 36 -14 39 -35 119 -71 156 -71 20 0 7 100 -20 151 -80 151 -386 537 -466
586 -58 36 -70 48 -239 233 -83 91 -171 187 -196 214 -25 28 23 -16 107 -97
181 -173 283 -257 361 -296 34 -18 63 -41 74 -61 11 -17 42 -59 69 -93 58 -71
279 -297 290 -297 5 0 8 13 8 30 0 40 -69 170 -179 333 -50 76 -89 137 -87
137 6 0 241 -318 314 -425 67 -99 170 -225 183 -225 15 0 10 36 -16 105 -28
72 -28 91 -1 50 9 -14 44 -57 78 -97 56 -64 62 -69 69 -50 17 46 -28 300 -81
450 -24 67 -16 67 15 -1 22 -51 115 -224 158 -295 29 -50 37 -26 37 117 0 152
-17 272 -81 559 -28 123 -49 226 -47 228 2 2 17 -36 32 -84 35 -107 96 -243
106 -237 17 11 33 158 32 300 -2 267 -20 619 -33 654 -14 39 -9 177 16 426 9
88 20 225 25 305 6 106 7 39 4 -246 -4 -313 -2 -408 10 -480 8 -49 18 -156 21
-239 8 -189 18 -264 52 -396 l27 -106 -26 -59 c-39 -86 -49 -144 -51 -279 -1
-87 4 -138 17 -185 24 -87 83 -213 96 -205 5 3 13 24 16 46 4 21 10 39 14 39
4 0 16 -21 27 -47 l20 -48 18 59 c10 33 30 128 45 210 l28 151 -5 -134 c-5
-97 -3 -132 5 -127 6 3 43 49 82 101 39 52 75 95 80 95 4 0 11 -17 15 -37 l7
-38 43 47 c91 101 326 541 437 821 17 42 33 76 34 74 6 -6 -193 -592 -215
-636 -13 -24 -46 -75 -74 -112 -104 -136 -167 -290 -167 -413 l-1 -51 -29 73
c-30 76 -54 112 -76 112 -21 0 -73 -49 -99 -95 -27 -45 -60 -178 -71 -285 -5
-53 -3 -68 9 -79 13 -10 19 -9 37 12 18 21 28 24 64 20 43 -5 44 -5 88 53 25
33 62 85 83 117 21 31 39 57 41 57 1 0 -15 -37 -36 -82 -51 -110 -99 -236 -92
-242 3 -3 15 -6 27 -6 15 0 35 18 65 58 26 35 39 47 35 32 -5 -14 -14 -44 -21
-68 l-13 -42 37 -19 c20 -10 52 -22 71 -26 33 -7 37 -4 125 86 65 69 82 82 59
49 -45 -66 -95 -170 -89 -185 10 -26 96 -77 121 -71 12 3 74 45 136 92 79 60
103 75 78 48 -51 -55 -93 -114 -82 -114 5 0 36 19 67 41 51 36 57 39 51 19 -5
-17 16 -5 91 52 98 74 344 242 344 235 0 -2 -57 -47 -127 -99 -150 -112 -358
-286 -426 -355 l-47 -49 46 -82 47 -82 56 0 c31 0 92 4 136 10 192 22 207 22
100 -3 -116 -27 -245 -68 -245 -78 0 -9 29 -16 125 -28 87 -12 562 -59 635
-63 25 -2 -119 -7 -320 -11 -385 -9 -477 -17 -330 -29 163 -14 1375 -21 1655
-9 149 6 441 15 650 21 209 6 495 15 635 20 140 6 437 15 660 20 223 6 657 18
965 27 611 18 1779 31 1915 22 71 -5 60 -6 -70 -7 -183 -2 -917 -26 -1465 -47
-214 -8 -527 -19 -695 -25 -168 -5 -348 -12 -400 -15 -52 -3 -401 -14 -775
-25 -374 -11 -696 -22 -715 -24 -19 -2 703 -1 1605 2 2022 7 2026 7 2320 -8
464 -24 464 -25 20 -34 -231 -5 -440 -12 -465 -16 -40 -7 -36 -8 35 -9 213 -3
836 -55 1047 -86 54 -8 105 -15 113 -15 13 0 15 276 15 2470 l0 2470 -5120 0
-5120 0 0 -5120z m1308 2432 c85 -172 206 -451 199 -459 -2 -2 -12 16 -23 39
-10 24 -65 144 -122 268 -146 316 -152 330 -146 330 2 0 44 -80 92 -178z
m1105 -239 c-3 -43 -10 -87 -15 -98 -9 -20 -3 78 9 143 10 57 13 34 6 -45z
m886 -540 c-84 -98 -167 -201 -186 -230 -34 -50 -37 -52 -56 -38 -12 8 -29 15
-38 15 -20 0 -107 -45 -238 -124 -51 -31 -96 -56 -98 -56 -3 0 13 18 35 41 23
22 87 113 142 202 134 214 152 235 85 98 -30 -63 -55 -125 -55 -138 0 -22 3
-24 33 -18 17 4 66 23 107 41 69 32 89 48 245 209 94 96 171 175 172 175 2 0
-65 -80 -148 -177z m6048 -999 c-3 -3 -12 -4 -19 -1 -8 3 -5 6 6 6 11 1 17 -2
13 -5z m-192 -15 c-71 -3 -191 -6 -265 -6 l-135 1 125 6 c69 3 188 6 265 6
l140 1 -130 -8z m-422 -16 c-13 -2 -35 -2 -50 0 -16 2 -5 4 22 4 28 0 40 -2
28 -4z m-1458 -823 c671 -40 1511 -105 1975 -153 82 -9 -71 -6 -180 3 -63 5
-259 19 -435 30 -176 11 -441 32 -590 45 -148 14 -461 38 -695 55 -234 16
-436 32 -450 33 -68 10 62 5 375 -13z m2068 -167 c-7 -2 -21 -2 -30 0 -10 3
-4 5 12 5 17 0 24 -2 18 -5z m-7708 -1495 c-33 -107 -106 -311 -117 -328 -8
-13 -9 -13 -5 0 25 88 133 400 138 400 4 0 -3 -33 -16 -72z"/>
<path d="M2031 6258 c0 -27 4 -48 9 -48 11 0 11 21 0 65 -7 27 -8 25 -9 -17z"/>
<path d="M1530 6278 c0 -21 102 -289 109 -286 12 5 130 103 130 108 2 14 -106
115 -161 150 -65 43 -78 47 -78 28z"/>
</g>
</svg>
